<svg version="1.1" xmlns="http://www.w3.org/2000/svg" xmlns:xlink="http://www.w3.org/1999/xlink" width="115" height="109.58763"><g transform="translate(-152,-106)"><g data-paper-data="{&quot;isPaintingLayer&quot;:true}" fill="none" fill-rule="nonzero" stroke="none" stroke-width="none" stroke-linecap="butt" stroke-linejoin="miter" stroke-miterlimit="10" stroke-dasharray="" stroke-dashoffset="0" font-family="none" font-weight="none" font-size="none" text-anchor="none" style="mix-blend-mode: normal"><path d="M199.53275,174.40041c3.30084,4.76788 -1.2014,13.60248 -10.05604,19.73261c-8.85464,6.13014 -18.70861,7.23446 -22.00945,2.46658c-3.30084,-4.76788 1.2014,-13.60248 10.05604,-19.73261c8.85464,-6.13014 18.70861,-7.23446 22.00945,-2.46658z" data-paper-data="{&quot;origRot&quot;:0}" fill="#9966ff" stroke="none" stroke-width="0"/><path d="M192,178v-46h6v46z" data-paper-data="{&quot;origPos&quot;:null}" fill="#9966ff" stroke="none" stroke-width="0"/><path d="M239.53275,164.40041c3.30085,4.76789 -1.2014,13.60248 -10.05604,19.73261c-8.85464,6.13013 -18.70861,7.23446 -22.00946,2.46658c-3.30085,-4.76789 1.2014,-13.60248 10.05604,-19.73261c8.85464,-6.13013 18.70861,-7.23446 22.00945,-2.46658z" data-paper-data="{&quot;origRot&quot;:0,&quot;origPos&quot;:null}" fill="#9966ff" stroke="none" stroke-width="0"/><path d="M232,168v-46h6v46z" data-paper-data="{&quot;origPos&quot;:null}" fill="#9966ff" stroke="none" stroke-width="0"/><path d="M191.37708,134.11893l43.17591,-15.8695l2.06993,5.63164l-43.17591,15.8695z" data-paper-data="{&quot;origPos&quot;:null,&quot;origRot&quot;:0}" fill="#9966ff" stroke="none" stroke-width="0"/><path d="M262,160.79381c0,27.50036 -23.50505,49.79381 -52.5,49.79381c-28.99495,0 -52.5,-22.29345 -52.5,-49.79381c0,-27.50036 23.50505,-49.79381 52.5,-49.79381c28.99495,0 52.5,22.29345 52.5,49.79381z" data-paper-data="{&quot;origPos&quot;:null}" fill="none" stroke="#9966ff" stroke-width="10"/></g></g></svg>